<svg width="390" height="278" viewBox="0 0 390 278" fill="none" xmlns="http://www.w3.org/2000/svg">
<g clip-path="url(#clip0_125_13445)">
<path d="M25.8491 278H364.132C364.303 278 364.468 277.932 364.589 277.811C364.71 277.689 364.778 277.525 364.778 277.353C364.778 277.182 364.71 277.018 364.589 276.896C364.468 276.775 364.303 276.707 364.132 276.707H25.8491C25.6776 276.707 25.5132 276.775 25.392 276.896C25.2707 277.018 25.2026 277.182 25.2026 277.353C25.2026 277.525 25.2707 277.689 25.392 277.811C25.5132 277.932 25.6776 278 25.8491 278V278Z" fill="#CCCCCC"/>
<path d="M90.8427 121.377C71.0586 101.899 62.7028 81.5785 67.3137 64.1592C73.231 41.8054 99.5186 26.3496 139.436 21.7549L139.583 23.0371C100.222 27.5675 74.3351 42.6765 68.5612 64.4894C64.0737 81.4417 72.3083 101.318 91.748 120.458L90.8427 121.377Z" fill="#F0F0F0"/>
<path d="M281.725 190.518C257.034 190.518 230.202 186.849 203.55 179.792C170.592 171.066 140.372 157.894 116.159 141.701L116.876 140.629C140.973 156.744 171.058 169.855 203.88 178.544C233.541 186.398 263.424 190.037 290.288 189.077L290.335 190.366C287.498 190.468 284.628 190.519 281.725 190.518Z" fill="#F0F0F0"/>
<path d="M338.371 182.403L337.958 181.181C360.041 173.713 373.853 161.684 377.901 146.393C383.047 126.954 371.868 104.396 346.424 82.8752C320.85 61.2447 283.973 43.2968 242.583 32.3384L242.913 31.0908C284.484 42.0974 321.541 60.1383 347.257 81.8901C373.103 103.751 384.429 126.776 379.149 146.723C374.985 162.453 360.884 174.791 338.371 182.403Z" fill="#F0F0F0"/>
<path d="M135.594 191.058C87.0767 169.537 49.6902 141.617 30.3223 112.44L31.3971 111.726C50.6311 140.701 87.8214 168.456 136.117 189.878L135.594 191.058Z" fill="#F0F0F0"/>
<path d="M306.179 228.34C301.174 228.34 296.085 228.229 290.909 228.005L290.965 226.716C329.586 228.388 363.663 223.766 389.517 213.346L390 214.543C367.446 223.632 338.7 228.34 306.179 228.34Z" fill="#F0F0F0"/>
<path d="M278.028 22.912C270.009 20.3009 261.761 17.8696 253.512 15.6857C206.046 3.11827 159.386 -1.34382 118.575 2.78433L118.445 1.50017C159.408 -2.6415 206.228 1.83127 253.842 14.4381C262.114 16.6283 270.386 19.0665 278.428 21.6852L278.028 22.912Z" fill="#F0F0F0"/>
<path d="M60.5204 123.313C40.7364 103.835 32.3805 83.5142 36.9914 66.095C42.9087 43.7411 69.1963 28.2853 109.114 23.6906L109.261 24.9728C69.8994 29.5033 44.0129 44.6122 38.2389 66.4251C33.7515 83.3774 41.986 103.254 61.4258 122.393L60.5204 123.313Z" fill="#F0F0F0"/>
<path d="M251.403 192.454C226.711 192.454 199.88 188.784 173.228 181.728C140.269 173.001 110.05 159.83 85.8369 143.637L86.5539 142.565C110.651 158.679 140.736 171.79 173.558 180.48C203.219 188.334 233.102 191.973 259.966 191.012L260.013 192.302C257.176 192.404 254.306 192.454 251.403 192.454Z" fill="#F0F0F0"/>
<path d="M308.049 184.339L307.636 183.117C329.719 175.649 343.531 163.62 347.579 148.329C352.725 128.89 341.546 106.332 316.102 84.8109C290.528 63.1804 253.65 45.2325 212.26 34.2741L212.59 33.0265C254.161 44.0331 291.219 62.0739 316.935 83.8258C342.781 105.687 354.107 128.712 348.827 148.659C344.663 164.389 330.562 176.727 308.049 184.339Z" fill="#F0F0F0"/>
<path d="M105.272 192.993C56.7545 171.473 19.3679 143.553 0 114.375L1.07485 113.661C20.3089 142.637 57.4992 170.392 105.795 191.814L105.272 192.993Z" fill="#F0F0F0"/>
<path d="M275.856 230.276C270.852 230.276 265.762 230.164 260.587 229.941L260.642 228.652C299.264 230.324 333.341 225.701 359.195 215.281L359.678 216.479C337.124 225.567 308.378 230.276 275.856 230.276Z" fill="#F0F0F0"/>
<path d="M247.706 24.8477C239.687 22.2366 231.438 19.8053 223.19 17.6214C175.724 5.05396 129.064 0.59187 88.2524 4.71999L88.1226 3.43584C129.086 -0.705828 175.906 3.76694 223.52 16.3738C231.792 18.564 240.064 21.0022 248.105 23.6209L247.706 24.8477Z" fill="#F0F0F0"/>
<path d="M21.9929 88.7488C31.2653 78.3516 46.0562 72.0148 59.4602 75.8081C47.0945 84.5599 38.2227 97.4041 34.4144 112.068C32.9662 117.729 31.9448 124.176 27.2377 127.637C24.3088 129.79 20.428 130.305 16.8261 129.814C13.224 129.324 9.81818 127.923 6.45828 126.534L5.5542 126.613C8.1535 112.926 12.7205 99.1461 21.9929 88.7488Z" fill="#F2F2F2"/>
<path d="M59.4191 76.0975C48.2125 78.8112 38.1457 84.9874 30.6487 93.7488C29.0013 95.6062 27.6569 97.7118 26.6651 99.9879C25.7706 102.236 25.4944 104.683 25.8653 107.075C26.1664 109.311 26.7332 111.564 26.4854 113.835C26.3413 114.996 25.9535 116.113 25.3475 117.113C24.7415 118.113 23.9309 118.974 22.969 119.638C20.6152 121.357 17.7842 122.128 14.9895 122.785C11.8866 123.515 8.652 124.224 6.1226 126.287C5.81613 126.537 5.44634 126.046 5.75236 125.797C10.1531 122.209 16.2691 122.669 21.1381 120.063C23.4101 118.847 25.3293 116.939 25.796 114.32C26.204 112.031 25.6214 109.707 25.297 107.445C24.901 105.117 25.0809 102.728 25.8209 100.486C26.6937 98.1669 27.9547 96.013 29.55 94.1169C33.0734 89.7907 37.2551 86.0454 41.9419 83.0183C47.2716 79.5339 53.1581 76.987 59.3466 75.4877C59.7296 75.3951 59.7997 76.0055 59.4191 76.0975H59.4191Z" fill="white"/>
<path d="M32.8966 90.7855C31.5975 89.328 30.8588 87.4561 30.8124 85.5041C30.7659 83.5522 31.4148 81.6473 32.643 80.1296C32.8926 79.8234 33.3801 80.1969 33.1302 80.5035C31.9839 81.9146 31.3797 83.6891 31.4266 85.5067C31.4736 87.3243 32.1686 89.0652 33.3863 90.4152C33.6506 90.7089 33.1593 91.0775 32.8966 90.7855Z" fill="white"/>
<path d="M25.5632 105.961C29.5454 106.225 33.4809 104.979 36.585 102.47C36.8924 102.222 37.2622 102.712 36.9552 102.96C33.7201 105.565 29.622 106.853 25.4787 106.569C25.0838 106.542 25.1705 105.934 25.5632 105.961Z" fill="white"/>
<path d="M47.4093 80.3363C47.7944 81.005 48.3396 81.5676 48.9958 81.9735C49.652 82.3794 50.3988 82.6159 51.1691 82.6618C51.5641 82.6842 51.477 83.2922 51.0846 83.27C50.2338 83.2153 49.4094 82.9531 48.6833 82.5062C47.9573 82.0594 47.3517 81.4415 46.9195 80.7066C46.873 80.6407 46.8532 80.5596 46.8643 80.4797C46.8755 80.3999 46.9166 80.3272 46.9793 80.2765C47.0444 80.2278 47.1261 80.2068 47.2066 80.218C47.2871 80.2292 47.3599 80.2717 47.4093 80.3363L47.4093 80.3363Z" fill="white"/>
<path d="M78.487 118.97C78.2399 118.963 77.9929 118.956 77.7426 118.953C74.4205 118.877 71.0976 119.071 67.8068 119.533C67.5518 119.565 67.2939 119.601 67.0403 119.64C59.1239 120.837 51.4987 123.495 44.5522 127.476C41.7895 129.063 39.1515 130.858 36.6611 132.845C33.2219 135.59 29.7112 138.839 25.6848 140.246C25.2664 140.397 24.8389 140.523 24.405 140.621L5.71947 127.71C5.69172 127.659 5.66084 127.613 5.63289 127.562L4.86328 127.08C4.98456 126.969 5.11275 126.856 5.23405 126.744C5.30413 126.68 5.3784 126.617 5.44845 126.553C5.49649 126.51 5.54477 126.468 5.58569 126.427C5.60164 126.413 5.61779 126.399 5.63079 126.389C5.67175 126.348 5.71409 126.314 5.75206 126.277C6.46685 125.644 7.18734 125.014 7.91352 124.388C7.91647 124.384 7.91647 124.384 7.92357 124.383C13.4113 119.562 19.4515 115.409 25.9176 112.011C26.1119 111.912 26.309 111.809 26.5118 111.716C29.431 110.251 32.4649 109.028 35.5834 108.057C37.2927 107.532 39.0275 107.093 40.7812 106.742C45.3141 105.845 49.9599 105.667 54.5482 106.214C63.6948 107.306 72.3903 111.312 78.0592 118.423C78.2041 118.605 78.345 118.784 78.487 118.97Z" fill="#F2F2F2"/>
<path d="M78.2811 119.178C67.6996 114.597 55.9438 113.467 44.6835 115.948C42.2499 116.439 39.9089 117.311 37.7468 118.531C35.679 119.788 33.9853 121.575 32.8419 123.708C31.7358 125.675 30.8322 127.815 29.2672 129.479C28.4535 130.319 27.4715 130.977 26.3855 131.411C25.2996 131.845 24.1343 132.044 22.966 131.995C20.0517 131.951 17.3274 130.861 14.7003 129.703C11.7833 128.418 8.77396 127.036 5.5128 127.16C5.11766 127.175 5.11754 126.561 5.51206 126.546C11.1859 126.331 15.7918 130.381 21.2484 131.232C23.7946 131.629 26.4758 131.261 28.4247 129.451C30.1289 127.869 31.0627 125.663 32.1654 123.661C33.2504 121.564 34.8322 119.765 36.7728 118.421C38.8658 117.094 41.1693 116.134 43.5846 115.58C49.0022 114.248 54.5957 113.775 60.1601 114.181C66.5133 114.608 72.7466 116.118 78.5904 118.648C78.952 118.804 78.6404 119.334 78.2811 119.178H78.2811Z" fill="white"/>
<path d="M48.2625 114.936C48.1027 112.99 48.6398 111.05 49.7778 109.464C50.9158 107.877 52.5806 106.747 54.4749 106.275C54.8586 106.181 55.023 106.773 54.6389 106.867C52.874 107.303 51.3234 108.356 50.2667 109.836C49.21 111.315 48.7169 113.124 48.8765 114.935C48.9107 115.329 48.2965 115.327 48.2625 114.936Z" fill="white"/>
<path d="M33.2713 122.637C36.2916 125.246 40.1841 126.62 44.1727 126.487C44.5679 126.473 44.5681 127.087 44.1735 127.101C40.0225 127.232 35.9746 125.793 32.8377 123.071C32.5389 122.812 32.9741 122.379 33.2713 122.637V122.637Z" fill="white"/>
<path d="M66.1408 115.331C66.0457 116.097 66.1424 116.875 66.422 117.594C66.7016 118.313 67.1555 118.952 67.7428 119.452C68.0448 119.708 67.6092 120.141 67.3092 119.887C66.6628 119.331 66.1624 118.625 65.8517 117.831C65.541 117.037 65.4295 116.179 65.5268 115.332C65.5293 115.251 65.5624 115.175 65.6193 115.118C65.6763 115.061 65.7528 115.027 65.8334 115.025C65.9147 115.025 65.9926 115.057 66.0501 115.115C66.1077 115.172 66.1402 115.25 66.1407 115.331H66.1408Z" fill="white"/>
<path d="M385.317 173.981C380.078 161.071 368.277 150.132 354.378 149.199C363.083 161.598 367.122 176.677 365.781 191.768C365.243 197.586 364.038 204.001 367.308 208.843C369.343 211.856 372.825 213.645 376.382 214.394C379.94 215.143 383.618 214.968 387.249 214.79L388.074 215.168C390.226 201.403 390.555 186.89 385.317 173.981Z" fill="#F2F2F2"/>
<path d="M354.319 149.485C363.962 155.808 371.367 165.008 375.484 175.78C376.411 178.083 376.97 180.518 377.139 182.995C377.226 185.414 376.664 187.811 375.511 189.939C374.476 191.944 373.184 193.876 372.655 196.098C372.4 197.239 372.39 198.421 372.625 199.567C372.86 200.713 373.334 201.796 374.016 202.745C375.655 205.155 378.063 206.833 380.474 208.391C383.151 210.122 385.959 211.877 387.648 214.669C387.853 215.008 388.366 214.67 388.162 214.333C385.223 209.474 379.308 207.852 375.598 203.761C373.867 201.852 372.701 199.409 373.141 196.786C373.526 194.492 374.856 192.5 375.922 190.478C377.077 188.419 377.71 186.109 377.767 183.749C377.724 181.271 377.26 178.818 376.395 176.496C374.53 171.237 371.851 166.304 368.454 161.878C364.605 156.805 359.917 152.427 354.592 148.935C354.263 148.719 353.992 149.27 354.319 149.485V149.485Z" fill="white"/>
<path d="M374.363 172.234C376.076 171.298 377.401 169.783 378.1 167.96C378.8 166.137 378.829 164.125 378.182 162.283C378.05 161.911 377.466 162.098 377.598 162.471C378.203 164.186 378.176 166.06 377.521 167.756C376.866 169.452 375.626 170.858 374.026 171.72C373.678 171.908 374.017 172.42 374.363 172.234Z" fill="white"/>
<path d="M376.17 188.991C372.33 187.902 369.042 185.405 366.962 181.999C366.756 181.662 366.243 181.999 366.449 182.336C368.62 185.876 372.047 188.468 376.045 189.592C376.426 189.699 376.549 189.098 376.17 188.991V188.991Z" fill="white"/>
<path d="M364.206 157.514C363.618 158.014 362.916 158.361 362.161 158.523C361.407 158.684 360.624 158.656 359.883 158.44C359.503 158.329 359.381 158.931 359.758 159.042C360.578 159.276 361.442 159.306 362.276 159.129C363.11 158.953 363.888 158.574 364.542 158.027C364.608 157.981 364.654 157.911 364.671 157.832C364.687 157.753 364.673 157.671 364.631 157.602C364.586 157.534 364.516 157.487 364.436 157.471C364.357 157.454 364.274 157.47 364.206 157.514H364.206Z" fill="white"/>
<path d="M321.952 183.454C322.187 183.531 322.422 183.607 322.659 183.688C325.813 184.733 328.878 186.033 331.822 187.574C332.051 187.69 332.282 187.81 332.508 187.932C339.561 191.721 345.85 196.787 351.054 202.872C353.123 205.295 355.004 207.872 356.682 210.581C358.999 214.322 361.213 218.562 364.533 221.241C364.876 221.524 365.236 221.786 365.612 222.024L387.549 216.145C387.593 216.107 387.637 216.073 387.681 216.035L388.567 215.84C388.491 215.694 388.408 215.545 388.331 215.399C388.287 215.314 388.238 215.231 388.194 215.146C388.163 215.09 388.131 215.034 388.107 214.982C388.096 214.963 388.086 214.944 388.077 214.931C388.052 214.878 388.024 214.832 388 214.785C387.54 213.948 387.073 213.113 386.599 212.279C386.598 212.274 386.598 212.274 386.592 212.271C383.043 205.885 378.75 199.944 373.802 194.57C373.652 194.412 373.501 194.248 373.341 194.093C371.084 191.732 368.638 189.56 366.027 187.598C364.594 186.528 363.108 185.531 361.574 184.612C357.606 182.243 353.29 180.514 348.785 179.487C339.804 177.441 330.268 178.291 322.539 183.082C322.341 183.205 322.148 183.326 321.952 183.454Z" fill="#F2F2F2"/>
<path d="M322.076 183.719C333.582 182.961 345.034 185.849 354.805 191.97C356.932 193.251 358.844 194.859 360.47 196.735C361.995 198.614 362.99 200.866 363.35 203.259C363.731 205.484 363.862 207.803 364.777 209.896C365.261 210.961 365.965 211.911 366.842 212.684C367.719 213.458 368.75 214.037 369.866 214.384C372.626 215.322 375.558 215.211 378.421 215.004C381.601 214.774 384.899 214.484 387.929 215.697C388.296 215.844 388.503 215.265 388.136 215.119C382.865 213.009 377.165 215.275 371.74 214.243C369.209 213.761 366.807 212.513 365.58 210.153C364.507 208.09 364.369 205.698 364.003 203.443C363.686 201.103 362.8 198.877 361.425 196.958C359.899 195.005 358.052 193.327 355.964 191.994C351.309 188.917 346.2 186.592 340.823 185.103C334.696 183.37 328.317 182.698 321.963 183.116C321.57 183.142 321.686 183.745 322.076 183.719V183.719Z" fill="white"/>
<path d="M351.774 189.814C352.579 188.035 352.725 186.028 352.186 184.151C351.648 182.274 350.459 180.65 348.834 179.569C348.504 179.351 348.151 179.853 348.481 180.071C349.996 181.075 351.103 182.588 351.601 184.337C352.099 186.086 351.955 187.955 351.196 189.607C351.032 189.966 351.611 190.171 351.774 189.814L351.774 189.814Z" fill="white"/>
<path d="M363.305 202.106C359.584 203.548 355.456 203.534 351.744 202.067C351.376 201.922 351.17 202.5 351.537 202.645C355.402 204.165 359.698 204.17 363.567 202.661C363.936 202.517 363.672 201.963 363.305 202.106V202.106Z" fill="white"/>
<path d="M334.804 184.177C334.636 184.93 334.283 185.63 333.778 186.213C333.273 186.797 332.631 187.246 331.91 187.52C331.54 187.659 331.804 188.213 332.172 188.075C332.968 187.768 333.676 187.272 334.236 186.628C334.795 185.985 335.189 185.215 335.382 184.384C335.406 184.307 335.401 184.224 335.366 184.151C335.332 184.078 335.271 184.021 335.196 183.992C335.119 183.965 335.035 183.969 334.962 184.004C334.888 184.038 334.831 184.101 334.804 184.177V184.177Z" fill="white"/>
<path d="M109.498 74.7597C112.349 74.7597 114.659 72.4486 114.659 69.5978C114.659 66.7471 112.349 64.436 109.498 64.436C106.648 64.436 104.337 66.7471 104.337 69.5978C104.337 72.4486 106.648 74.7597 109.498 74.7597Z" fill="#FD6584"/>
<path d="M307.056 125.686C307.513 122.872 305.602 120.221 302.789 119.764C299.975 119.308 297.324 121.219 296.867 124.033C296.411 126.847 298.321 129.498 301.135 129.955C303.949 130.411 306.6 128.5 307.056 125.686Z" fill="#E6E6E6"/>
<path d="M109.289 16.6714C112.139 16.6714 114.45 14.3604 114.45 11.5096C114.45 8.65883 112.139 6.34781 109.289 6.34781C106.438 6.34781 104.127 8.65883 104.127 11.5096C104.127 14.3604 106.438 16.6714 109.289 16.6714Z" fill="#E6E6E6"/>
<path d="M263.29 72.2508H261.817V31.889C261.817 25.6935 259.356 19.7517 254.975 15.3708C250.595 10.9899 244.654 8.5287 238.459 8.52869H152.956C149.889 8.52868 146.852 9.1329 144.018 10.3069C141.184 11.4808 138.609 13.2015 136.44 15.3707C134.271 17.5399 132.551 20.1151 131.377 22.9493C130.203 25.7835 129.599 28.8212 129.599 31.8889V31.8889V253.317C129.599 259.512 132.06 265.454 136.44 269.835C140.82 274.216 146.762 276.677 152.956 276.677H238.459C244.654 276.677 250.595 274.216 254.975 269.835C259.356 265.454 261.817 259.513 261.817 253.317V100.981H263.29V72.2508Z" fill="#3F3D56"/>
<path d="M256.844 32.051V253.155C256.844 255.445 256.393 257.713 255.517 259.829C254.641 261.946 253.356 263.869 251.737 265.488C250.118 267.108 248.196 268.393 246.08 269.27C243.964 270.147 241.696 270.598 239.406 270.599H153.486C148.86 270.599 144.424 268.761 141.153 265.49C137.882 262.219 136.044 257.783 136.044 253.157V32.051C136.044 29.7604 136.495 27.4922 137.371 25.3758C138.248 23.2595 139.532 21.3365 141.152 19.7167C142.771 18.0969 144.694 16.8119 146.81 15.9352C148.926 15.0585 151.194 14.6072 153.484 14.6071H163.913C163.399 15.8654 163.203 17.2308 163.342 18.5828C163.48 19.9349 163.949 21.2321 164.707 22.3602C165.465 23.4883 166.489 24.4127 167.688 25.0519C168.887 25.6911 170.225 26.0255 171.584 26.0256H220.57C221.928 26.0246 223.266 25.6896 224.465 25.0502C225.663 24.4108 226.687 23.4865 227.444 22.3586C228.202 21.2308 228.671 19.9339 228.81 18.5823C228.949 17.2306 228.753 15.8655 228.241 14.6071H239.402C241.692 14.607 243.96 15.058 246.076 15.9345C248.192 16.811 250.115 18.0958 251.735 19.7154C253.354 21.3351 254.639 23.2579 255.516 25.3742C256.392 27.4904 256.843 29.7586 256.844 32.0492V32.0492L256.844 32.051Z" fill="#F2F2F2"/>
<path d="M169.207 35.7131H142.554V36.9063H169.207V35.7131Z" fill="white"/>
<path d="M209.77 35.7131H183.117V36.9063H209.77V35.7131Z" fill="white"/>
<path d="M238.228 178.578H151.345C151.052 178.578 150.762 178.52 150.492 178.408C150.221 178.296 149.976 178.132 149.769 177.925C149.562 177.718 149.397 177.472 149.285 177.202C149.173 176.931 149.116 176.641 149.116 176.349C149.116 176.056 149.173 175.766 149.285 175.495C149.397 175.225 149.562 174.979 149.769 174.772C149.976 174.565 150.221 174.401 150.492 174.289C150.762 174.177 151.052 174.119 151.345 174.119H238.228C238.521 174.119 238.81 174.177 239.081 174.289C239.351 174.401 239.597 174.565 239.804 174.772C240.011 174.979 240.175 175.225 240.287 175.495C240.399 175.766 240.457 176.056 240.457 176.349C240.457 176.641 240.399 176.931 240.287 177.202C240.175 177.472 240.011 177.718 239.804 177.925C239.597 178.132 239.351 178.296 239.081 178.408C238.81 178.52 238.521 178.578 238.228 178.578V178.578Z" fill="#CCCCCC"/>
<path d="M238.228 194.089H151.345C150.754 194.089 150.187 193.854 149.769 193.436C149.351 193.018 149.116 192.451 149.116 191.86C149.116 191.268 149.351 190.701 149.769 190.283C150.187 189.865 150.754 189.63 151.345 189.63H238.228C238.819 189.63 239.386 189.865 239.804 190.283C240.222 190.701 240.457 191.268 240.457 191.86C240.457 192.451 240.222 193.018 239.804 193.436C239.386 193.854 238.819 194.089 238.228 194.089V194.089Z" fill="#CCCCCC"/>
<path d="M238.228 209.6H151.345C150.754 209.6 150.187 209.365 149.769 208.947C149.351 208.529 149.116 207.962 149.116 207.371C149.116 206.779 149.351 206.212 149.769 205.794C150.187 205.376 150.754 205.141 151.345 205.141H238.228C238.819 205.141 239.386 205.376 239.804 205.794C240.222 206.212 240.457 206.779 240.457 207.371C240.457 207.962 240.222 208.529 239.804 208.947C239.386 209.365 238.819 209.6 238.228 209.6V209.6Z" fill="#CCCCCC"/>
<path d="M250.333 35.7131H223.68V36.9063H250.333V35.7131Z" fill="white"/>
<path d="M169.207 249.885H142.554V251.078H169.207V249.885Z" fill="white"/>
<path d="M209.77 249.885H183.117V251.078H209.77V249.885Z" fill="white"/>
<path d="M250.333 249.885H223.68V251.078H250.333V249.885Z" fill="white"/>
<path d="M196.444 148.037C218.757 148.037 236.845 129.947 236.845 107.631C236.845 85.316 218.757 67.2258 196.444 67.2258C174.131 67.2258 156.042 85.316 156.042 107.631C156.042 129.947 174.131 148.037 196.444 148.037Z" fill="#D1D3D4"/>
<path d="M196.444 146.284C216.8 146.284 233.302 129.78 233.302 109.422C233.302 89.0636 216.8 72.5599 196.444 72.5599C176.088 72.5599 159.586 89.0636 159.586 109.422C159.586 129.78 176.088 146.284 196.444 146.284Z" fill="#2A9742"/>
<path d="M193.226 123.87C193.147 123.87 193.066 123.868 192.985 123.864C192.279 123.829 191.587 123.643 190.959 123.316C190.331 122.99 189.782 122.531 189.347 121.973L183.538 114.504C182.739 113.475 182.381 112.171 182.543 110.878C182.704 109.585 183.372 108.409 184.399 107.608L184.607 107.446C185.637 106.647 186.941 106.289 188.233 106.451C189.526 106.612 190.702 107.279 191.504 108.306C191.765 108.642 192.095 108.917 192.472 109.113C192.849 109.309 193.264 109.421 193.688 109.442C194.113 109.467 194.538 109.398 194.933 109.239C195.328 109.081 195.684 108.837 195.973 108.525L207.768 96.073C208.665 95.1285 209.9 94.5782 211.202 94.543C212.504 94.5078 213.767 94.9904 214.714 95.8851L214.906 96.0663C215.851 96.9632 216.401 98.1984 216.437 99.5009C216.472 100.803 215.989 102.067 215.094 103.014L196.791 122.335C196.333 122.82 195.78 123.206 195.167 123.47C194.554 123.734 193.894 123.87 193.226 123.87V123.87Z" fill="white"/>
<path d="M131.892 51.0831H127.12V76.7359H131.892V51.0831Z" fill="#3F3D56"/>
<path d="M131.892 79.7188H127.12V94.6333H131.892V79.7188Z" fill="#3F3D56"/>
<path d="M131.892 97.6161H127.12V112.531H131.892V97.6161Z" fill="#3F3D56"/>
<path d="M173.051 20.6576C174.369 20.6576 175.437 19.5892 175.437 18.2713C175.437 16.9534 174.369 15.885 173.051 15.885C171.733 15.885 170.665 16.9534 170.665 18.2713C170.665 19.5892 171.733 20.6576 173.051 20.6576Z" fill="white"/>
<path opacity="0.16" d="M196.444 141.177C187.119 141.176 178.141 137.64 171.32 131.281C164.499 124.922 160.342 116.213 159.687 106.91C159.627 107.768 159.586 108.632 159.586 109.505C159.586 119.281 163.469 128.657 170.381 135.57C177.294 142.483 186.669 146.367 196.444 146.367C206.219 146.367 215.594 142.483 222.506 135.57C229.419 128.657 233.302 119.281 233.302 109.505C233.302 108.632 233.261 107.768 233.201 106.91C232.546 116.213 228.389 124.922 221.568 131.281C214.747 137.64 205.769 141.176 196.444 141.177V141.177Z" fill="#151D48"/>
<path d="M248.407 139.167L277.636 140.36L281.215 120.673L256.161 112.918L248.407 139.167Z" fill="#FFB8B8"/>
<path d="M259.455 96.5266L259.738 87.2258L245.572 83.6738L220.067 76.2323C219.73 75.2083 219.089 74.3108 218.23 73.6587C217.372 73.0066 216.335 72.6305 215.258 72.5803C214.181 72.5301 213.115 72.808 212.199 73.3774C211.283 73.9467 210.562 74.7806 210.131 75.7688C209.699 76.757 209.578 77.8529 209.783 78.9115C209.988 79.9701 210.509 80.9416 211.278 81.6974C212.047 82.4531 213.028 82.9576 214.09 83.1441C215.151 83.3306 216.245 83.1903 217.225 82.7417L242.02 92.9351L259.455 96.5266Z" fill="#FFB8B8"/>
<path d="M250.326 96.4615L258.295 85.0941L258.494 85.1206C258.619 85.1371 271.116 86.8092 279.309 89.2492C280.23 89.4932 281.086 89.9352 281.819 90.5442C282.551 91.1533 283.142 91.9148 283.55 92.7757C284.135 93.9787 284.357 95.3265 284.187 96.6537C284.018 97.9809 283.464 99.2296 282.595 100.247C281.71 101.346 280.527 102.167 279.188 102.612C277.849 103.057 276.41 103.107 275.043 102.756L250.326 96.4615Z" fill="#E82B29"/>
<path d="M255.374 268.798L247.268 268.797L243.412 237.528L255.375 237.528L255.374 268.798Z" fill="#FFB8B8"/>
<path d="M318.491 265.288L310.476 266.5L301.989 236.158L312.496 234.37L318.491 265.288Z" fill="#FFB8B8"/>
<path d="M278.829 134.394L250.793 129.621L249.796 131.677C244.43 142.752 241.262 154.762 240.467 167.042C239.79 177.409 239.391 188.359 239.378 199.836C239.358 217.62 240.265 234.121 241.7 249.136L257.087 249.04C256.642 233.098 257.248 217.145 258.899 201.283C260.076 189.972 261.714 179.406 263.607 169.657C267.12 183.969 272.077 197.888 278.403 211.198C283.781 222.57 294.841 235.716 300.218 247.089C305.728 246.428 311.238 245.766 316.748 245.105C312.406 233.621 304.659 216.85 300.317 205.366C294.109 188.945 291.304 177.811 285.096 161.391C285.45 158.304 285.519 155.191 285.302 152.092C285.013 146.926 283.939 140.727 280.798 136.594L278.829 134.394Z" fill="#244496"/>
<path d="M283.161 125.835C284.561 128.452 281.235 133.875 278.829 134.394L251.104 125.431L265.064 84.9747L272.088 86.2514L283.321 88.1441L287.305 91.7662C288.309 92.6793 289.025 93.8642 289.368 95.1769C289.711 96.4895 289.666 97.8736 289.237 99.1609L283.161 125.835Z" fill="#E82B29"/>
<path d="M264.075 110.2L256.232 105.194L245.927 115.544L226.476 133.643C225.423 133.408 224.325 133.499 223.325 133.903C222.325 134.306 221.471 135.004 220.877 135.903C220.282 136.803 219.974 137.862 219.995 138.94C220.015 140.018 220.362 141.064 220.989 141.941C221.617 142.817 222.496 143.483 223.51 143.849C224.525 144.215 225.626 144.265 226.669 143.991C227.712 143.717 228.647 143.134 229.351 142.317C230.055 141.5 230.494 140.489 230.611 139.417L252.063 123.337L264.075 110.2Z" fill="#FFB8B8"/>
<path d="M259.345 118.008L253.663 105.341L253.787 105.184C253.865 105.085 261.701 95.2057 267.992 89.4174C268.673 88.7514 269.491 88.242 270.389 87.9247C271.287 87.6074 272.244 87.4898 273.192 87.5802C274.525 87.6937 275.796 88.1938 276.849 89.0191C277.901 89.8445 278.691 90.9591 279.119 92.2265C279.61 93.5494 279.71 94.9858 279.407 96.3639C279.103 97.742 278.409 99.0036 277.408 99.9977L259.345 118.008Z" fill="#E82B29"/>
<path d="M277.018 82.2713C283.828 82.2713 289.348 76.7501 289.348 69.9394C289.348 63.1288 283.828 57.6076 277.018 57.6076C270.208 57.6076 264.688 63.1288 264.688 69.9394C264.688 76.7501 270.208 82.2713 277.018 82.2713Z" fill="#FFB8B8"/>
<path d="M286.976 87.8087L286.929 87.7968L269.01 83.3146C268.389 83.1593 267.813 82.8606 267.329 82.4425C266.844 82.0245 266.464 81.4986 266.219 80.9072C265.974 80.3157 265.872 79.6752 265.919 79.0368C265.966 78.3985 266.163 77.7801 266.492 77.2314L267.084 76.2465C267.662 75.2848 267.99 74.1936 268.038 73.0726C268.086 71.9515 267.853 70.8363 267.359 69.8286C266.51 68.183 265.05 66.9357 263.292 66.3546L263.233 66.3261L262.857 66.0919C262.487 65.9173 262.158 65.6673 261.89 65.358C261.622 65.0487 261.422 64.6869 261.302 64.2958C261.178 63.8904 261.14 63.4636 261.192 63.0427C261.243 62.6219 261.381 62.2164 261.599 61.8526C263.181 59.2064 265.548 57.1191 268.372 55.8813C271.939 54.3455 275.956 54.2248 279.609 55.5437C279.852 55.3201 280.148 55.1604 280.468 55.079C280.788 54.9976 281.124 54.997 281.444 55.0773C290.724 57.325 291.488 63.5544 289.654 73.554L291.824 82.3067C291.978 82.9247 291.995 83.5687 291.874 84.1939C291.753 84.8191 291.498 85.4106 291.126 85.9272C290.754 86.4437 290.273 86.873 289.718 87.1852C289.164 87.4974 288.547 87.685 287.913 87.735L286.976 87.8087ZM279.51 55.6422L279.509 55.6433L279.51 55.6422ZM279.734 55.5874L279.735 55.588L279.734 55.5874Z" fill="#2F2E41"/>
<path d="M257.349 276.904H252.723L251.897 272.536L249.782 276.904H237.512C236.924 276.904 236.351 276.716 235.878 276.368C235.404 276.019 235.054 275.528 234.879 274.966C234.704 274.405 234.713 273.802 234.905 273.246C235.096 272.69 235.461 272.21 235.945 271.876L245.744 265.108V260.691L256.05 261.307L257.349 276.904Z" fill="#2F2E41"/>
<path d="M319.781 276.904H315.155L314.329 272.536L312.214 276.904H299.944C299.356 276.904 298.783 276.716 298.309 276.368C297.835 276.019 297.486 275.528 297.311 274.966C297.135 274.405 297.145 273.802 297.336 273.246C297.528 272.69 297.893 272.21 298.377 271.876L308.175 265.108V260.691L318.482 261.307L319.781 276.904Z" fill="#2F2E41"/>
</g>
<defs>
<clipPath id="clip0_125_13445">
<rect width="390" height="278" fill="white"/>
</clipPath>
</defs>
</svg>
