<svg width="45" height="45" viewBox="0 0 45 45" fill="none" xmlns="http://www.w3.org/2000/svg">
<path d="M23.0154 44.5325C18.6554 44.5599 14.3854 43.2962 10.7469 40.9019C7.10828 38.5076 4.26497 35.0903 2.57742 31.0834C0.889878 27.0765 0.434085 22.6604 1.26785 18.3951C2.10162 14.1297 4.1874 10.2071 7.26073 7.12462C10.334 4.04215 14.2565 1.93864 18.5308 1.08076C22.8051 0.222875 27.2388 0.649255 31.2696 2.30586C35.3005 3.96247 38.747 6.77467 41.1723 10.3859C43.5975 13.9972 44.8923 18.2449 44.8924 22.5905C44.8925 28.386 42.592 33.9463 38.4932 38.0572C34.3944 42.1682 28.8302 44.4961 23.0154 44.5325ZM16.0923 29.9045C16.5342 32.4769 17.4246 34.9522 18.7231 37.2185H19L22.4616 37.6325H23.0154V29.0765H15.9539L16.0923 29.9045ZM23.1539 37.9085H23.5693C24.7872 37.87 25.996 37.6847 27.1693 37.3565H27.4462C28.6846 35.0631 29.5714 32.5978 30.077 30.0425V29.4905H23.1539V37.9085ZM9.4462 30.0425C11.2609 33.2363 14.1567 35.6822 17.6154 36.9425L18.7231 37.3565L18.1693 36.2525C17.0475 34.1783 16.2536 31.944 15.8154 29.6285V29.3525H9.03079L9.4462 30.0425ZM30.2154 29.6285C29.8722 31.9488 29.1223 34.191 28 36.2525L27.3077 37.3565L28.5539 36.9425C31.9157 35.6371 34.7096 33.1945 36.4462 30.0425L36.8616 29.3525H30.3539L30.2154 29.6285ZM30.9077 23.1425C30.9295 24.9517 30.7437 26.7574 30.3539 28.5245V29.0765H36.8616V28.8005C37.6634 27.0137 38.1326 25.0966 38.2462 23.1425V22.7285H30.7693L30.9077 23.1425ZM23.1539 29.0765H30.2154V28.8005C30.4924 26.8685 30.6308 25.0745 30.7693 23.1425V22.7285H23.1539V29.0765ZM15.4 23.1425C15.4007 25.0361 15.5395 26.927 15.8154 28.8005V29.0765H22.8769V22.7285H15.2616L15.4 23.1425ZM7.50775 23.1425C7.62137 25.0966 8.09054 27.0137 8.89236 28.8005V29.0765H15.5385V28.5245C15.2521 26.7449 15.1132 24.9448 15.1231 23.1425V22.7285H7.50775V23.1425ZM30.4923 16.5185C30.7732 18.3451 30.9121 20.1906 30.9077 22.0385V22.4525H38.3847V22.0385C38.2696 20.0402 37.8008 18.078 37 16.2425V15.9665H30.4923V16.5185ZM23.1539 22.4525H30.7693V22.0385C30.6308 20.1065 30.4924 18.1745 30.2154 16.3805V15.9665H23.1539V22.4525ZM15.8154 16.3805C15.5345 18.2534 15.3956 20.1448 15.4 22.0385V22.4525H23.0154V15.9665H15.9539L15.8154 16.3805ZM8.89236 16.2425C8.07711 18.0732 7.60772 20.0381 7.50775 22.0385V22.4525H15.1231V22.0385C15.2616 20.1065 15.4 18.3125 15.677 16.5185V15.9665H9.03079L8.89236 16.2425ZM28 8.9285C29.1046 10.9486 29.8539 13.1423 30.2154 15.4145V15.8285H36.7231L36.3077 15.1385C34.5711 11.9865 31.7772 9.54392 28.4154 8.2385L27.1693 7.82451L28 8.9285ZM23.1539 15.8285H30.2154V15.2765C29.7736 12.7042 28.8832 10.2288 27.5847 7.96252H27.3077C26.1403 7.58758 24.9314 7.35587 23.7077 7.27252H23.2924L23.1539 15.8285ZM22.4616 7.13451L19 7.68651H18.7231C17.4246 9.95277 16.5342 12.4281 16.0923 15.0005V15.5525H23.1539V6.8585L22.4616 7.13451ZM17.6154 8.2385C14.1567 9.4988 11.2609 11.9447 9.4462 15.1385L9.03079 15.8285H15.8154V15.4145C16.2793 13.106 17.0719 10.8754 18.1693 8.79049L18.7231 7.68651L17.6154 8.2385Z" fill="url(#paint0_linear_497_9240)"/>
<path d="M23.0156 42.1866C19.1269 42.1866 15.3255 41.0373 12.0922 38.8841C8.85886 36.7309 6.33881 33.6704 4.85067 30.0897C3.36254 26.509 2.97315 22.5689 3.7318 18.7676C4.49044 14.9664 6.36302 11.4747 9.11273 8.73417C11.8624 5.99362 15.3658 4.12729 19.1798 3.37118C22.9938 2.61506 26.947 3.0031 30.5397 4.48628C34.1324 5.96945 37.2031 8.4811 39.3635 11.7037C41.524 14.9262 42.6771 18.7149 42.6771 22.5906C42.6771 25.164 42.1686 27.7122 41.1805 30.0897C40.1924 32.4672 38.7441 34.6274 36.9184 36.4471C35.0926 38.2667 32.9252 39.7102 30.5397 40.695C28.1543 41.6798 25.5975 42.1866 23.0156 42.1866ZM22.1848 41.7726L23.154 41.4966L23.8463 41.7726L23.5694 41.3586L28.554 39.4266H28.831L29.3848 39.1506C33.1442 37.7412 36.2829 35.0529 38.2463 31.5606H38.3848L38.8002 30.7326L40.7387 27.1446H40.0463C40.2955 26.4262 40.4808 25.6874 40.6002 24.9366H40.7387V20.5206H40.6002L40.1848 18.3126H40.7387L38.8002 14.8626L38.3848 13.8966H38.2463C36.2895 10.3676 33.1541 7.63322 29.3848 6.16862H28.554L23.5694 4.23662L23.8463 3.82264L23.154 4.09862L22.3232 3.82264L22.6002 4.23662L17.4771 6.16862H16.7848C12.9124 7.57773 9.67184 10.3181 7.64631 13.8966H7.50788L7.09247 14.8626L5.15402 18.3126H5.84633C5.56118 19.0136 5.41996 19.7643 5.43096 20.5206H5.15402V24.9366H5.43096C5.43359 25.6917 5.57434 26.4399 5.84633 27.1446H5.15402L7.23094 30.8706L7.50788 31.5606H7.64631C9.67184 35.1391 12.9124 37.8795 16.7848 39.2886H17.6156L22.4617 41.0826L22.1848 41.7726Z" fill="url(#paint1_linear_497_9240)"/>
<path d="M22.9998 1.67943C27.1898 1.67943 31.2857 2.92189 34.7695 5.24972C38.2534 7.57756 40.9687 10.8862 42.5722 14.7573C44.1756 18.6283 44.5951 22.8879 43.7777 26.9974C42.9603 31.1069 40.9426 34.8817 37.9798 37.8444C35.0171 40.8072 31.2423 42.8249 27.1328 43.6423C23.0233 44.4597 18.7637 44.0402 14.8926 42.4368C11.0216 40.8333 7.71295 38.118 5.38512 34.6341C3.05728 31.1503 1.81478 27.0544 1.81478 22.8644C1.81478 17.2458 4.04679 11.8573 8.01975 7.88435C11.9927 3.9114 17.3812 1.67943 22.9998 1.67943ZM22.5924 7.24724H22.4566C21.4916 7.24906 20.5316 7.38622 19.6047 7.65467V7.38305L17.2961 8.19787C13.8304 9.58402 10.9514 12.1272 9.14808 15.3953L8.46907 16.7533C7.69805 18.5104 7.28262 20.4027 7.24683 22.3212V23.136C7.31225 25.0508 7.72646 26.9377 8.46907 28.7039L9.14808 30.0619C10.9731 33.333 13.9131 35.8393 17.4319 37.1235L19.7406 38.0741V37.8025L22.4566 38.2099H23.543L26.3948 37.8025V38.0741L28.7034 37.1235C32.1211 35.7844 34.9578 33.2842 36.7157 30.0619L37.5305 28.7039H37.3947C38.1995 26.958 38.6164 25.0584 38.6169 23.136H38.7527V22.457H38.6169C38.6298 20.5331 38.2122 18.6307 37.3947 16.8891H37.5305L36.7157 15.5311C34.9963 12.2783 32.1465 9.76665 28.7034 8.46949L26.3948 7.51886V7.79048C25.4679 7.52203 24.5079 7.38487 23.543 7.38305H22.5924M22.9998 1.00042C18.6486 1.00042 14.3952 2.29069 10.7773 4.70806C7.15949 7.12543 4.33976 10.5613 2.67465 14.5812C1.00953 18.6012 0.573862 23.0246 1.42273 27.2921C2.2716 31.5597 4.36688 35.4797 7.4436 38.5564C10.5203 41.6331 14.4403 43.7284 18.7078 44.5773C22.9754 45.4261 27.3988 44.9905 31.4187 43.3254C35.4387 41.6602 38.8746 38.8405 41.2919 35.2226C43.7093 31.6048 44.9996 27.3513 44.9996 23.0002C45.0176 20.1061 44.4609 17.2372 43.3617 14.5599C42.2625 11.8827 40.6427 9.45029 38.5962 7.40382C36.5497 5.35735 34.1173 3.73751 31.44 2.6383C28.7627 1.5391 25.8939 0.982392 22.9998 1.00042ZM23.543 15.9386V8.33368C24.693 8.37163 25.8336 8.55412 26.938 8.87688C28.1945 11.0664 29.0671 13.4548 29.5183 15.9386H23.543ZM16.6171 15.9386C17.0683 13.4548 17.9409 11.0664 19.1974 8.87688C20.239 8.48906 21.3454 8.30467 22.4566 8.33368V15.9386H16.6171ZM10.0987 15.9386C11.7377 12.816 14.5061 10.4361 17.8393 9.28426C16.6706 11.3431 15.8882 13.5983 15.5307 15.9386H10.0987ZM30.6046 15.9386C30.1199 13.6317 29.3442 11.3957 28.296 9.28426C31.5011 10.5381 34.1509 12.8989 35.7651 15.9386H30.6046ZM31.1478 22.457C31.1632 20.6381 31.027 18.8212 30.7405 17.0249H36.3083C37.1089 18.7305 37.5701 20.5754 37.6663 22.457H31.1478ZM23.543 22.457V17.0249H29.654C29.9405 18.8212 30.0768 20.6381 30.0615 22.457H23.543ZM15.9381 22.457C15.9381 20.42 16.2097 18.6546 16.3455 17.0249H22.4566V22.457H15.9381ZM8.33326 22.457C8.31731 20.5764 8.73556 18.7175 9.55547 17.0249H15.2591C15.1233 18.6546 14.8517 20.42 14.8517 22.457H8.33326ZM30.7405 28.9754C31.027 27.1792 31.1632 25.3622 31.1478 23.5434H37.6663C37.5701 25.425 37.1089 27.2699 36.3083 28.9754H30.7405ZM23.543 28.9754V23.5434H30.0615C30.0768 25.3622 29.9405 27.1792 29.654 28.9754H23.543ZM16.4813 28.9754C16.1454 27.1836 15.9637 25.3663 15.9381 23.5434H22.4566V28.9754H16.4813ZM9.55547 28.9754C8.79843 27.2615 8.38327 25.4164 8.33326 23.5434H14.8517C14.8773 25.3663 15.059 27.1836 15.3949 28.9754H9.55547ZM28.296 36.7161C29.3485 34.619 30.0809 32.376 30.4688 30.0619H35.7651C34.123 33.0795 31.4825 35.432 28.296 36.7161ZM23.543 37.6667V30.0619H29.3824C28.9613 32.5341 28.1354 34.92 26.938 37.1235L23.543 37.6667ZM22.4566 37.6667C21.3521 37.619 20.2576 37.4366 19.1974 37.1235C17.9409 34.934 17.0683 32.5457 16.6171 30.0619H22.4566V37.6667ZM17.8393 36.7161C14.5578 35.4758 11.8175 33.1201 10.0987 30.0619H15.5307C15.8882 32.4021 16.6706 34.6573 17.8393 36.7161Z" fill="#FE6B00"/>
<defs>
<linearGradient id="paint0_linear_497_9240" x1="22.9601" y1="0.910702" x2="22.9601" y2="55.2275" gradientUnits="userSpaceOnUse">
<stop stop-color="#FFBF0B"/>
<stop offset="1" stop-color="#FE6B00"/>
</linearGradient>
<linearGradient id="paint1_linear_497_9240" x1="13.5171" y1="6.26524" x2="30.3525" y2="35.5285" gradientUnits="userSpaceOnUse">
<stop stop-color="#FE6B00"/>
<stop offset="0.31" stop-color="#FFBF0B"/>
<stop offset="1" stop-color="#FE6B00"/>
</linearGradient>
</defs>
</svg>
